<svg xmlns="http://www.w3.org/2000/svg" xmlns:xlink="http://www.w3.org/1999/xlink" width="500" zoomAndPan="magnify" viewBox="0 0 375 374.999991" height="500" preserveAspectRatio="xMidYMid meet" version="1.0"><defs><clipPath id="83a35bd560"><path d="M 62.03125 50.234375 L 312.96875 50.234375 L 312.96875 301.171875 L 62.03125 301.171875 Z M 62.03125 50.234375 " clip-rule="nonzero"/></clipPath><clipPath id="8eba491083"><path d="M 187.5 50.234375 C 118.207031 50.234375 62.03125 106.410156 62.03125 175.703125 C 62.03125 244.996094 118.207031 301.171875 187.5 301.171875 C 256.792969 301.171875 312.96875 244.996094 312.96875 175.703125 C 312.96875 106.410156 256.792969 50.234375 187.5 50.234375 Z M 187.5 50.234375 " clip-rule="nonzero"/></clipPath><clipPath id="cb258e38c8"><path d="M 0 121.117188 L 375 121.117188 L 375 324.765625 L 0 324.765625 Z M 0 121.117188 " clip-rule="nonzero"/></clipPath><clipPath id="4424ee9b49"><path d="M 187.5 121.117188 L 406.273438 324.765625 L -31.273438 324.765625 Z M 187.5 121.117188 " clip-rule="nonzero"/></clipPath><clipPath id="8a85f0aa80"><path d="M 157.054688 200.417969 L 185 200.417969 L 185 229 L 157.054688 229 Z M 157.054688 200.417969 " clip-rule="nonzero"/></clipPath><clipPath id="cc9d5d6f8f"><path d="M 192 200.417969 L 219.984375 200.417969 L 219.984375 229 L 192 229 Z M 192 200.417969 " clip-rule="nonzero"/></clipPath><clipPath id="a3a2715e7f"><path d="M 157.054688 235 L 185 235 L 185 263.347656 L 157.054688 263.347656 Z M 157.054688 235 " clip-rule="nonzero"/></clipPath><clipPath id="e51d461264"><path d="M 192 235 L 219.984375 235 L 219.984375 263.347656 L 192 263.347656 Z M 192 235 " clip-rule="nonzero"/></clipPath></defs><g clip-path="url(#83a35bd560)"><g clip-path="url(#8eba491083)"><path fill="#000000" d="M 62.03125 50.234375 L 312.96875 50.234375 L 312.96875 301.171875 L 62.03125 301.171875 Z M 62.03125 50.234375 " fill-opacity="1" fill-rule="nonzero"/></g></g><g clip-path="url(#cb258e38c8)"><g clip-path="url(#4424ee9b49)"><path fill="#ffffff" d="M -31.273438 121.117188 L 406.253906 121.117188 L 406.253906 324.765625 L -31.273438 324.765625 Z M -31.273438 121.117188 " fill-opacity="1" fill-rule="nonzero"/></g></g><g clip-path="url(#8a85f0aa80)"><path fill="#000000" d="M 183.484375 200.417969 L 158.3125 200.417969 C 157.617188 200.417969 157.054688 200.980469 157.054688 201.675781 L 157.054688 226.847656 C 157.054688 227.542969 157.617188 228.105469 158.3125 228.105469 L 183.484375 228.105469 C 184.179688 228.105469 184.742188 227.542969 184.742188 226.847656 L 184.742188 201.675781 C 184.742188 200.980469 184.179688 200.417969 183.484375 200.417969 Z M 183.484375 200.417969 " fill-opacity="1" fill-rule="nonzero"/></g><g clip-path="url(#cc9d5d6f8f)"><path fill="#000000" d="M 218.726562 200.417969 L 193.554688 200.417969 C 192.855469 200.417969 192.292969 200.980469 192.292969 201.675781 L 192.292969 226.847656 C 192.292969 227.542969 192.855469 228.105469 193.554688 228.105469 L 218.726562 228.105469 C 219.421875 228.105469 219.984375 227.542969 219.984375 226.847656 L 219.984375 201.675781 C 219.984375 200.980469 219.421875 200.417969 218.726562 200.417969 Z M 218.726562 200.417969 " fill-opacity="1" fill-rule="nonzero"/></g><g clip-path="url(#a3a2715e7f)"><path fill="#000000" d="M 183.484375 235.65625 L 158.3125 235.65625 C 157.617188 235.65625 157.054688 236.21875 157.054688 236.917969 L 157.054688 262.089844 C 157.054688 262.785156 157.617188 263.347656 158.3125 263.347656 L 183.484375 263.347656 C 184.179688 263.347656 184.742188 262.785156 184.742188 262.089844 L 184.742188 236.917969 C 184.742188 236.21875 184.179688 235.65625 183.484375 235.65625 Z M 183.484375 235.65625 " fill-opacity="1" fill-rule="nonzero"/></g><g clip-path="url(#e51d461264)"><path fill="#000000" d="M 218.726562 235.65625 L 193.554688 235.65625 C 192.855469 235.65625 192.292969 236.21875 192.292969 236.917969 L 192.292969 262.089844 C 192.292969 262.785156 192.855469 263.347656 193.554688 263.347656 L 218.726562 263.347656 C 219.421875 263.347656 219.984375 262.785156 219.984375 262.089844 L 219.984375 236.917969 C 219.984375 236.21875 219.421875 235.65625 218.726562 235.65625 Z M 218.726562 235.65625 " fill-opacity="1" fill-rule="nonzero"/></g></svg>