<svg xmlns="http://www.w3.org/2000/svg" xmlns:xlink="http://www.w3.org/1999/xlink" width="500" zoomAndPan="magnify" viewBox="0 0 375 374.999991" height="500" preserveAspectRatio="xMidYMid meet" version="1.0"><defs><g/><clipPath id="57b9e96f35"><path d="M 167.46875 173.601562 L 212.144531 173.601562 L 212.144531 218.28125 L 167.46875 218.28125 Z M 167.46875 173.601562 " clip-rule="nonzero"/></clipPath><clipPath id="348084faff"><path d="M 189.804688 173.601562 C 177.46875 173.601562 167.46875 183.605469 167.46875 195.941406 C 167.46875 208.28125 177.46875 218.28125 189.804688 218.28125 C 202.144531 218.28125 212.144531 208.28125 212.144531 195.941406 C 212.144531 183.605469 202.144531 173.601562 189.804688 173.601562 Z M 189.804688 173.601562 " clip-rule="nonzero"/></clipPath><clipPath id="d6d1a1af8b"><path d="M 150.855469 186.222656 L 228.894531 186.222656 L 228.894531 222.484375 L 150.855469 222.484375 Z M 150.855469 186.222656 " clip-rule="nonzero"/></clipPath><clipPath id="da33672a2b"><path d="M 189.804688 186.222656 L 228.757812 222.484375 L 150.855469 222.484375 Z M 189.804688 186.222656 " clip-rule="nonzero"/></clipPath><clipPath id="cd217e8a51"><path d="M 184.386719 200.34375 L 190 200.34375 L 190 206 L 184.386719 206 Z M 184.386719 200.34375 " clip-rule="nonzero"/></clipPath><clipPath id="6c96249408"><path d="M 190 200.34375 L 195.589844 200.34375 L 195.589844 206 L 190 206 Z M 190 200.34375 " clip-rule="nonzero"/></clipPath><clipPath id="ddeeccb59d"><path d="M 184.386719 206 L 190 206 L 190 211.546875 L 184.386719 211.546875 Z M 184.386719 206 " clip-rule="nonzero"/></clipPath><clipPath id="31f1efe4d3"><path d="M 190 206 L 195.589844 206 L 195.589844 211.546875 L 190 211.546875 Z M 190 206 " clip-rule="nonzero"/></clipPath></defs><g fill="#000000" fill-opacity="1"><g transform="translate(82.861504, 212.004475)"><g><path d="M 17.5625 -58.453125 L 17.5625 0 L 4.25 0 L 4.25 -58.453125 Z M 17.5625 -58.453125 "/></g></g></g><g fill="#000000" fill-opacity="1"><g transform="translate(100.430728, 212.004475)"><g><path d="M 4.25 0 L 4.25 -36.34375 L 16.796875 -36.34375 L 16.796875 -32.515625 L 16.9375 -32.515625 C 20.1875 -35.773438 23.65625 -37.40625 27.34375 -37.40625 C 29.988281 -37.40625 32.46875 -36.859375 34.78125 -35.765625 C 37.09375 -34.679688 38.84375 -33.007812 40.03125 -30.75 C 43.707031 -35.1875 47.71875 -37.40625 52.0625 -37.40625 C 55.9375 -37.40625 59.265625 -36.316406 62.046875 -34.140625 C 64.835938 -31.972656 66.234375 -28.570312 66.234375 -23.9375 L 66.234375 0 L 53.703125 0 L 53.703125 -20.546875 C 53.703125 -22.484375 53.171875 -24.097656 52.109375 -25.390625 C 51.046875 -26.691406 49.453125 -27.34375 47.328125 -27.34375 C 45.484375 -27.34375 44.078125 -26.785156 43.109375 -25.671875 C 42.140625 -24.566406 41.609375 -23.234375 41.515625 -21.671875 L 41.515625 0 L 28.96875 0 L 28.96875 -20.546875 C 28.96875 -22.484375 28.4375 -24.097656 27.375 -25.390625 C 26.3125 -26.691406 24.71875 -27.34375 22.59375 -27.34375 C 20.65625 -27.34375 19.203125 -26.738281 18.234375 -25.53125 C 17.273438 -24.332031 16.796875 -22.90625 16.796875 -21.25 L 16.796875 0 Z M 4.25 0 "/></g></g></g><g fill="#000000" fill-opacity="1"><g transform="translate(210.338868, 212.004475)"><g><path d="M 41.65625 -31.8125 C 45.050781 -28.082031 46.75 -23.523438 46.75 -18.140625 C 46.75 -12.753906 45.050781 -8.207031 41.65625 -4.5 C 38.257812 -0.789062 33.9375 1.0625 28.6875 1.0625 C 23.875 1.0625 19.910156 -0.660156 16.796875 -4.109375 L 16.640625 -4.109375 L 16.640625 0 L 4.25 0 L 4.25 -60.921875 L 16.796875 -60.921875 L 16.796875 -32.875 C 19.910156 -35.894531 23.875 -37.40625 28.6875 -37.40625 C 33.9375 -37.40625 38.257812 -35.539062 41.65625 -31.8125 Z M 31.09375 -12 C 32.65625 -13.582031 33.4375 -15.625 33.4375 -18.125 C 33.4375 -20.632812 32.617188 -22.691406 30.984375 -24.296875 C 29.359375 -25.898438 27.34375 -26.703125 24.9375 -26.703125 C 22.570312 -26.703125 20.570312 -25.898438 18.9375 -24.296875 C 17.3125 -22.691406 16.5 -20.640625 16.5 -18.140625 C 16.5 -15.679688 17.289062 -13.648438 18.875 -12.046875 C 20.457031 -10.441406 22.476562 -9.640625 24.9375 -9.640625 C 27.488281 -9.640625 29.539062 -10.425781 31.09375 -12 Z M 31.09375 -12 "/></g></g></g><g fill="#000000" fill-opacity="1"><g transform="translate(254.475102, 212.004475)"><g><path d="M 5.453125 -56.59375 C 6.921875 -58.0625 8.671875 -58.796875 10.703125 -58.796875 C 12.734375 -58.796875 14.476562 -58.0625 15.9375 -56.59375 C 17.40625 -55.132812 18.140625 -53.390625 18.140625 -51.359375 C 18.140625 -49.328125 17.40625 -47.578125 15.9375 -46.109375 C 14.476562 -44.648438 12.734375 -43.921875 10.703125 -43.921875 C 8.671875 -43.921875 6.921875 -44.648438 5.453125 -46.109375 C 3.992188 -47.578125 3.265625 -49.328125 3.265625 -51.359375 C 3.265625 -53.390625 3.992188 -55.132812 5.453125 -56.59375 Z M 4.25 -36.34375 L 4.25 0 L 16.796875 0 L 16.796875 -36.34375 Z M 4.25 -36.34375 "/></g></g></g><g clip-path="url(#57b9e96f35)"><g clip-path="url(#348084faff)"><path fill="#000000" d="M 167.46875 173.601562 L 212.144531 173.601562 L 212.144531 218.28125 L 167.46875 218.28125 Z M 167.46875 173.601562 " fill-opacity="1" fill-rule="nonzero"/></g></g><g clip-path="url(#d6d1a1af8b)"><g clip-path="url(#da33672a2b)"><path fill="#ffffff" d="M 150.855469 186.222656 L 228.753906 186.222656 L 228.753906 222.484375 L 150.855469 222.484375 Z M 150.855469 186.222656 " fill-opacity="1" fill-rule="nonzero"/></g></g><g clip-path="url(#cd217e8a51)"><path fill="#000000" d="M 189.089844 200.34375 L 184.609375 200.34375 C 184.484375 200.34375 184.386719 200.441406 184.386719 200.566406 L 184.386719 205.046875 C 184.386719 205.171875 184.484375 205.273438 184.609375 205.273438 L 189.089844 205.273438 C 189.214844 205.273438 189.316406 205.171875 189.316406 205.046875 L 189.316406 200.566406 C 189.316406 200.441406 189.214844 200.34375 189.089844 200.34375 Z M 189.089844 200.34375 " fill-opacity="1" fill-rule="nonzero"/></g><g clip-path="url(#6c96249408)"><path fill="#000000" d="M 195.367188 200.34375 L 190.882812 200.34375 C 190.761719 200.34375 190.660156 200.441406 190.660156 200.566406 L 190.660156 205.046875 C 190.660156 205.171875 190.761719 205.273438 190.882812 205.273438 L 195.367188 205.273438 C 195.488281 205.273438 195.589844 205.171875 195.589844 205.046875 L 195.589844 200.566406 C 195.589844 200.441406 195.488281 200.34375 195.367188 200.34375 Z M 195.367188 200.34375 " fill-opacity="1" fill-rule="nonzero"/></g><g clip-path="url(#ddeeccb59d)"><path fill="#000000" d="M 189.089844 206.617188 L 184.609375 206.617188 C 184.484375 206.617188 184.386719 206.71875 184.386719 206.839844 L 184.386719 211.324219 C 184.386719 211.445312 184.484375 211.546875 184.609375 211.546875 L 189.089844 211.546875 C 189.214844 211.546875 189.316406 211.445312 189.316406 211.324219 L 189.316406 206.839844 C 189.316406 206.71875 189.214844 206.617188 189.089844 206.617188 Z M 189.089844 206.617188 " fill-opacity="1" fill-rule="nonzero"/></g><g clip-path="url(#31f1efe4d3)"><path fill="#000000" d="M 195.367188 206.617188 L 190.882812 206.617188 C 190.761719 206.617188 190.660156 206.71875 190.660156 206.839844 L 190.660156 211.324219 C 190.660156 211.445312 190.761719 211.546875 190.882812 211.546875 L 195.367188 211.546875 C 195.488281 211.546875 195.589844 211.445312 195.589844 211.324219 L 195.589844 206.839844 C 195.589844 206.71875 195.488281 206.617188 195.367188 206.617188 Z M 195.367188 206.617188 " fill-opacity="1" fill-rule="nonzero"/></g><g fill="#000000" fill-opacity="1"><g transform="translate(127.419525, 167.62377)"><g><path d="M 21.03125 -12.0625 L 21.03125 -7.390625 C 20.476562 -4.828125 19.257812 -2.890625 17.375 -1.578125 C 15.5 -0.265625 13.40625 0.390625 11.09375 0.390625 C 8.1875 0.390625 5.707031 -0.691406 3.65625 -2.859375 C 1.613281 -5.035156 0.59375 -7.664062 0.59375 -10.75 C 0.59375 -13.882812 1.59375 -16.53125 3.59375 -18.6875 C 5.601562 -20.84375 8.101562 -21.921875 11.09375 -21.921875 C 14.582031 -21.921875 17.347656 -20.691406 19.390625 -18.234375 L 16.171875 -14.71875 C 15.023438 -16.5625 13.425781 -17.484375 11.375 -17.484375 C 9.863281 -17.484375 8.570312 -16.828125 7.5 -15.515625 C 6.425781 -14.203125 5.890625 -12.613281 5.890625 -10.75 C 5.890625 -8.925781 6.425781 -7.363281 7.5 -6.0625 C 8.570312 -4.769531 9.863281 -4.125 11.375 -4.125 C 12.625 -4.125 13.710938 -4.5 14.640625 -5.25 C 15.578125 -6.007812 16.046875 -7.015625 16.046875 -8.265625 L 11.09375 -8.265625 L 11.09375 -12.0625 Z M 21.03125 -12.0625 "/></g></g></g><g fill="#000000" fill-opacity="1"><g transform="translate(147.481758, 167.62377)"><g><path d="M 15.109375 -6.046875 L 5.40625 -6.046875 C 5.40625 -5.109375 5.707031 -4.410156 6.3125 -3.953125 C 6.925781 -3.503906 7.585938 -3.28125 8.296875 -3.28125 C 9.046875 -3.28125 9.632812 -3.378906 10.0625 -3.578125 C 10.5 -3.785156 11 -4.1875 11.5625 -4.78125 L 14.90625 -3.109375 C 13.507812 -0.773438 11.191406 0.390625 7.953125 0.390625 C 5.941406 0.390625 4.210938 -0.296875 2.765625 -1.671875 C 1.316406 -3.054688 0.59375 -4.722656 0.59375 -6.671875 C 0.59375 -8.628906 1.316406 -10.300781 2.765625 -11.6875 C 4.210938 -13.082031 5.941406 -13.78125 7.953125 -13.78125 C 10.078125 -13.78125 11.804688 -13.164062 13.140625 -11.9375 C 14.472656 -10.707031 15.140625 -8.957031 15.140625 -6.6875 C 15.140625 -6.363281 15.128906 -6.148438 15.109375 -6.046875 Z M 5.53125 -8.609375 L 10.625 -8.609375 C 10.519531 -9.304688 10.242188 -9.84375 9.796875 -10.21875 C 9.347656 -10.59375 8.78125 -10.78125 8.09375 -10.78125 C 7.320312 -10.78125 6.707031 -10.578125 6.25 -10.171875 C 5.800781 -9.773438 5.5625 -9.253906 5.53125 -8.609375 Z M 5.53125 -8.609375 "/></g></g></g><g fill="#000000" fill-opacity="1"><g transform="translate(161.64789, 167.62377)"><g><path d="M 7.390625 -13.78125 C 8.148438 -13.78125 8.90625 -13.691406 9.65625 -13.515625 C 10.40625 -13.335938 10.960938 -13.164062 11.328125 -13 L 11.875 -12.734375 L 10.359375 -9.703125 C 9.316406 -10.265625 8.328125 -10.546875 7.390625 -10.546875 C 6.867188 -10.546875 6.5 -10.488281 6.28125 -10.375 C 6.0625 -10.257812 5.953125 -10.046875 5.953125 -9.734375 C 5.953125 -9.660156 5.957031 -9.585938 5.96875 -9.515625 C 5.988281 -9.453125 6.023438 -9.390625 6.078125 -9.328125 C 6.128906 -9.265625 6.175781 -9.210938 6.21875 -9.171875 C 6.257812 -9.128906 6.332031 -9.082031 6.4375 -9.03125 C 6.550781 -8.976562 6.632812 -8.9375 6.6875 -8.90625 C 6.75 -8.882812 6.847656 -8.847656 6.984375 -8.796875 C 7.128906 -8.742188 7.234375 -8.703125 7.296875 -8.671875 C 7.367188 -8.648438 7.488281 -8.613281 7.65625 -8.5625 C 7.820312 -8.507812 7.945312 -8.472656 8.03125 -8.453125 C 8.570312 -8.296875 9.039062 -8.117188 9.4375 -7.921875 C 9.84375 -7.734375 10.265625 -7.472656 10.703125 -7.140625 C 11.148438 -6.816406 11.492188 -6.398438 11.734375 -5.890625 C 11.984375 -5.390625 12.109375 -4.816406 12.109375 -4.171875 C 12.109375 -1.128906 9.992188 0.390625 5.765625 0.390625 C 4.804688 0.390625 3.894531 0.242188 3.03125 -0.046875 C 2.175781 -0.347656 1.554688 -0.644531 1.171875 -0.9375 L 0.59375 -1.40625 L 2.484375 -4.5625 C 2.617188 -4.445312 2.796875 -4.304688 3.015625 -4.140625 C 3.242188 -3.972656 3.65625 -3.742188 4.25 -3.453125 C 4.84375 -3.171875 5.359375 -3.03125 5.796875 -3.03125 C 6.753906 -3.03125 7.234375 -3.351562 7.234375 -4 C 7.234375 -4.289062 7.109375 -4.519531 6.859375 -4.6875 C 6.617188 -4.851562 6.207031 -5.039062 5.625 -5.25 C 5.039062 -5.457031 4.582031 -5.644531 4.25 -5.8125 C 3.414062 -6.25 2.753906 -6.738281 2.265625 -7.28125 C 1.785156 -7.832031 1.546875 -8.5625 1.546875 -9.46875 C 1.546875 -10.820312 2.070312 -11.878906 3.125 -12.640625 C 4.175781 -13.398438 5.597656 -13.78125 7.390625 -13.78125 Z M 7.390625 -13.78125 "/></g></g></g><g fill="#000000" fill-opacity="1"><g transform="translate(172.918156, 167.62377)"><g><path d="M 2.34375 -13.390625 L 2.34375 -18.375 L 6.96875 -18.375 L 6.96875 -13.390625 L 9.78125 -13.390625 L 9.78125 -9.859375 L 6.96875 -9.859375 L 6.96875 -5.609375 C 6.96875 -4.367188 7.316406 -3.75 8.015625 -3.75 C 8.179688 -3.75 8.359375 -3.785156 8.546875 -3.859375 C 8.742188 -3.929688 8.894531 -4.003906 9 -4.078125 L 9.15625 -4.171875 L 10.3125 -0.4375 C 9.3125 0.113281 8.179688 0.390625 6.921875 0.390625 C 6.046875 0.390625 5.296875 0.238281 4.671875 -0.0625 C 4.046875 -0.363281 3.570312 -0.769531 3.25 -1.28125 C 2.925781 -1.800781 2.691406 -2.34375 2.546875 -2.90625 C 2.410156 -3.46875 2.34375 -4.070312 2.34375 -4.71875 L 2.34375 -9.859375 L 0.421875 -9.859375 L 0.421875 -13.390625 Z M 2.34375 -13.390625 "/></g></g></g><g fill="#000000" fill-opacity="1"><g transform="translate(181.657795, 167.62377)"><g><path d="M 2.828125 -1.59375 C 1.335938 -2.914062 0.59375 -4.609375 0.59375 -6.671875 C 0.59375 -8.742188 1.367188 -10.445312 2.921875 -11.78125 C 4.472656 -13.113281 6.382812 -13.78125 8.65625 -13.78125 C 10.90625 -13.78125 12.796875 -13.109375 14.328125 -11.765625 C 15.867188 -10.429688 16.640625 -8.734375 16.640625 -6.671875 C 16.640625 -4.617188 15.890625 -2.925781 14.390625 -1.59375 C 12.890625 -0.269531 10.976562 0.390625 8.65625 0.390625 C 6.257812 0.390625 4.316406 -0.269531 2.828125 -1.59375 Z M 6.40625 -8.953125 C 5.800781 -8.359375 5.5 -7.597656 5.5 -6.671875 C 5.5 -5.753906 5.785156 -5.003906 6.359375 -4.421875 C 6.941406 -3.835938 7.703125 -3.546875 8.640625 -3.546875 C 9.546875 -3.546875 10.285156 -3.84375 10.859375 -4.4375 C 11.441406 -5.03125 11.734375 -5.78125 11.734375 -6.6875 C 11.734375 -7.601562 11.429688 -8.359375 10.828125 -8.953125 C 10.234375 -9.546875 9.503906 -9.84375 8.640625 -9.84375 C 7.753906 -9.84375 7.007812 -9.546875 6.40625 -8.953125 Z M 6.40625 -8.953125 "/></g></g></g><g fill="#000000" fill-opacity="1"><g transform="translate(197.337089, 167.62377)"><g><path d="M 1.5625 0 L 1.5625 -13.390625 L 6.1875 -13.390625 L 6.1875 -11.453125 L 6.234375 -11.453125 C 6.265625 -11.523438 6.316406 -11.613281 6.390625 -11.71875 C 6.472656 -11.820312 6.644531 -12.003906 6.90625 -12.265625 C 7.175781 -12.523438 7.457031 -12.757812 7.75 -12.96875 C 8.039062 -13.175781 8.421875 -13.363281 8.890625 -13.53125 C 9.367188 -13.695312 9.847656 -13.78125 10.328125 -13.78125 C 10.835938 -13.78125 11.332031 -13.707031 11.8125 -13.5625 C 12.300781 -13.425781 12.660156 -13.289062 12.890625 -13.15625 L 13.25 -12.9375 L 11.328125 -9.03125 C 10.753906 -9.519531 9.953125 -9.765625 8.921875 -9.765625 C 8.367188 -9.765625 7.890625 -9.640625 7.484375 -9.390625 C 7.085938 -9.148438 6.804688 -8.851562 6.640625 -8.5 C 6.472656 -8.15625 6.351562 -7.859375 6.28125 -7.609375 C 6.21875 -7.367188 6.1875 -7.179688 6.1875 -7.046875 L 6.1875 0 Z M 1.5625 0 "/></g></g></g></svg>